<?xml version="1.0" encoding="UTF-8" standalone="no"?>
<svg
   viewBox="0 0 512 512"
   version="1.1"
   id="svg59"
   sodipodi:docname="instagram.svg"
   inkscape:version="1.1.1 (3bf5ae0d25, 2021-09-20)"
   xmlns:inkscape="http://www.inkscape.org/namespaces/inkscape"
   xmlns:sodipodi="http://sodipodi.sourceforge.net/DTD/sodipodi-0.dtd"
   xmlns="http://www.w3.org/2000/svg"
   xmlns:svg="http://www.w3.org/2000/svg">
  <defs
     id="defs63" />
  <sodipodi:namedview
     id="namedview61"
     pagecolor="#ffffff"
     bordercolor="#666666"
     borderopacity="1.0"
     inkscape:pageshadow="2"
     inkscape:pageopacity="0.0"
     inkscape:pagecheckerboard="0"
     showgrid="false"
     inkscape:zoom="1.0273438"
     inkscape:cx="256"
     inkscape:cy="256"
     inkscape:window-width="1366"
     inkscape:window-height="749"
     inkscape:window-x="0"
     inkscape:window-y="19"
     inkscape:window-maximized="1"
     inkscape:current-layer="svg59" />
  <path
     style="fill:#000000"
     d="M256,49.471c67.266,0,75.233.257,101.8,1.469,24.562,1.121,37.9,5.224,46.778,8.674a78.052,78.052,0,0,1,28.966,18.845,78.052,78.052,0,0,1,18.845,28.966c3.45,8.877,7.554,22.216,8.674,46.778,1.212,26.565,1.469,34.532,1.469,101.8s-0.257,75.233-1.469,101.8c-1.121,24.562-5.225,37.9-8.674,46.778a83.427,83.427,0,0,1-47.811,47.811c-8.877,3.45-22.216,7.554-46.778,8.674-26.56,1.212-34.527,1.469-101.8,1.469s-75.237-.257-101.8-1.469c-24.562-1.121-37.9-5.225-46.778-8.674a78.051,78.051,0,0,1-28.966-18.845,78.053,78.053,0,0,1-18.845-28.966c-3.45-8.877-7.554-22.216-8.674-46.778-1.212-26.564-1.469-34.532-1.469-101.8s0.257-75.233,1.469-101.8c1.121-24.562,5.224-37.9,8.674-46.778A78.052,78.052,0,0,1,78.458,78.458a78.053,78.053,0,0,1,28.966-18.845c8.877-3.45,22.216-7.554,46.778-8.674,26.565-1.212,34.532-1.469,101.8-1.469m0-45.391c-68.418,0-77,.29-103.866,1.516-26.815,1.224-45.127,5.482-61.151,11.71a123.488,123.488,0,0,0-44.62,29.057A123.488,123.488,0,0,0,17.3,90.982C11.077,107.007,6.819,125.319,5.6,152.134,4.369,179,4.079,187.582,4.079,256S4.369,333,5.6,359.866c1.224,26.815,5.482,45.127,11.71,61.151a123.489,123.489,0,0,0,29.057,44.62,123.486,123.486,0,0,0,44.62,29.057c16.025,6.228,34.337,10.486,61.151,11.71,26.87,1.226,35.449,1.516,103.866,1.516s77-.29,103.866-1.516c26.815-1.224,45.127-5.482,61.151-11.71a128.817,128.817,0,0,0,73.677-73.677c6.228-16.025,10.486-34.337,11.71-61.151,1.226-26.87,1.516-35.449,1.516-103.866s-0.29-77-1.516-103.866c-1.224-26.815-5.482-45.127-11.71-61.151a123.486,123.486,0,0,0-29.057-44.62A123.487,123.487,0,0,0,421.018,17.3C404.993,11.077,386.681,6.819,359.866,5.6,333,4.369,324.418,4.079,256,4.079h0Z"
     id="path53" />
  <path
     style="fill:#000000"
     d="M256,126.635A129.365,129.365,0,1,0,385.365,256,129.365,129.365,0,0,0,256,126.635Zm0,213.338A83.973,83.973,0,1,1,339.974,256,83.974,83.974,0,0,1,256,339.973Z"
     id="path55" />
  <circle
     style="fill:#000000"
     cx="390.476"
     cy="121.524"
     r="30.23"
     id="circle57" />
  <path
     style="fill:#ffffff;stroke:#000000;stroke-width:0.973384"
     d="M 154.81313,506.06154 C 104.02857,503.42713 72.192448,490.98474 45.284561,463.25486 31.92375,449.48589 22.926245,435.03059 16.662094,417.27029 6.1524729,387.47309 4.8855347,370.12342 4.8855347,256 4.8855347,141.87479 6.152854,124.52092 16.662794,94.729713 23.073056,76.559343 31.645838,62.813698 45.436514,48.593773 63.528119,29.939048 83.600649,18.620889 110.79055,11.743041 133.57419,5.9797832 156.74518,4.8855347 256,4.8855347 c 114.12521,0 131.47908,1.2673193 161.27029,11.7772593 19.10293,6.739259 32.3627,15.213795 47.64744,30.452272 14.8705,14.825506 23.76638,28.74963 30.42017,47.614647 10.50963,29.797197 11.77657,47.146867 11.77657,161.270287 0,114.82431 -1.26754,131.8297 -12.08146,162.08573 -12.65881,35.41777 -42.33827,64.91402 -77.76272,77.28265 -19.09946,6.66867 -34.28187,9.26273 -62.9585,10.75701 -21.95402,1.14399 -177.17235,1.09431 -199.49866,-0.0639 z m 204.5254,-44.65976 c 35.09098,-2.23733 55.60253,-9.59213 73.20146,-26.24775 18.28804,-17.30778 26.37289,-38.81577 29.02889,-77.22509 1.58555,-22.92935 1.58555,-180.92853 0,-203.85788 C 459.4293,123.1299 453.44485,102.26693 442.65834,88.145312 423.63572,63.241015 401.22546,53.32958 357.37755,50.427983 c -23.31139,-1.542612 -179.44371,-1.542612 -202.7551,0 -25.89849,1.713809 -40.96992,5.094857 -55.769914,12.511135 -7.832112,3.92467 -12.436901,7.29032 -20.319435,14.851519 -17.71408,16.991955 -25.450729,37.990393 -28.104699,76.280423 -1.590441,22.94601 -1.590441,180.91187 0,203.85788 2.65397,38.29003 10.390619,59.28847 28.104699,76.28042 14.038174,13.4659 27.574129,20.17327 48.980209,24.27077 12.88592,2.4666 20.90955,3.07828 51.58935,3.93298 34.48028,0.96058 160.38884,0.25408 180.23587,-1.01133 z"
     id="path219" />
  <path
     style="fill:#ffffff;stroke:#000000;stroke-width:0.973384"
     d="m 234.09886,382.93432 c -53.593,-9.48161 -95.959,-52.16116 -105.11279,-105.89072 -1.92814,-11.31754 -1.88214,-30.96561 0.0996,-42.52986 9.24874,-53.97085 51.5576,-96.13495 105.87076,-105.50851 11.03601,-1.90464 30.96683,-1.91371 42.0872,-0.0192 54.12632,9.22138 96.74895,51.84401 105.97033,105.97033 0.81001,4.75453 1.47276,14.22416 1.47276,21.0436 0,6.81944 -0.66275,16.28907 -1.47276,21.0436 -9.22948,54.17385 -51.79648,96.74085 -105.97033,105.97033 -10.73398,1.82872 -32.38509,1.78859 -42.94474,-0.0796 z m 43.02461,-45.21317 c 29.3914,-7.4902 52.69091,-30.8034 60.75764,-60.79339 1.65587,-6.15605 2.09458,-10.53943 2.09458,-20.92776 0,-10.38833 -0.43871,-14.77171 -2.09458,-20.92776 -6.63422,-24.66429 -23.27373,-44.6967 -46.11495,-55.5181 -11.68988,-5.53826 -20.77017,-7.47654 -35.27947,-7.53074 -14.12781,-0.0528 -21.42265,1.30931 -33.14272,6.18838 -24.14248,10.05055 -42.28623,31.09458 -49.27701,57.15397 -2.87534,10.71834 -2.84266,30.65615 0.0681,41.56201 8.83606,33.1061 35.93799,57.50294 69.69762,62.74095 8.22984,1.27691 24.33507,0.33473 33.29077,-1.94756 z"
     id="path258" />
  <path
     style="fill:#ffffff;stroke:#000000;stroke-width:0.973384"
     d="m 379.62464,149.22529 c -6.12321,-2.22815 -14.7617,-11.06839 -16.86787,-17.26181 -5.0099,-14.73211 1.69666,-30.89 15.40293,-37.109721 7.13816,-3.239206 12.04293,-3.749453 18.97377,-1.973855 11.38232,2.916015 19.07061,10.604306 21.98663,21.986626 3.35422,13.09281 -3.4003,27.11388 -16.04191,33.29988 -5.81238,2.8442 -17.14165,3.3557 -23.45355,1.05888 z"
     id="path297" />
</svg>
